<?xml version="1.0" encoding="UTF-8"?>
<svg version="1.1" xmlns="http://www.w3.org/2000/svg" width="64" height="64">
<path d="M0 0 C1.5 1.375 1.5 1.375 3 3 C3 3.66 3 4.32 3 5 C4.65 4.67 6.3 4.34 8 4 C8.33 3.01 8.66 2.02 9 1 C17.91 1.66 26.82 2.32 36 3 C36 4.32 36 5.64 36 7 C31.545 7.495 31.545 7.495 27 8 C28.98 9.32 30.96 10.64 33 12 C32.67 12.99 32.34 13.98 32 15 C30.35 15 28.7 15 27 15 C27.495 16.3921875 27.495 16.3921875 28 17.8125 C28.4392862 20.79723909 28.04947602 21.915698 26.49609375 24.5625 C25.09270102 26.43724095 23.66437504 28.29351269 22.21484375 30.1328125 C19.07810312 34.19342559 16.54609719 38.55397423 14 43 C12.515 42.505 12.515 42.505 11 42 C11.99 38.7 12.98 35.4 14 32 C13.071875 32.845625 12.14375 33.69125 11.1875 34.5625 C9.60546875 36.00390625 9.60546875 36.00390625 8 37 C6.515 36.505 6.515 36.505 5 36 C5.495 33.03 5.495 33.03 6 30 C5.26007812 29.66742188 4.52015625 29.33484375 3.7578125 28.9921875 C0.023396 26.29452119 -1.24676612 23.24523637 -3.125 19.125 C-3.7925021 17.71010172 -4.46173665 16.29601928 -5.1328125 14.8828125 C-5.44508789 14.21282227 -5.75736328 13.54283203 -6.07910156 12.85253906 C-7.06256387 10.79071843 -7.06256387 10.79071843 -8.8046875 8.1796875 C-9.39636719 7.10074219 -9.39636719 7.10074219 -10 6 C-9.67 5.01 -9.34 4.02 -9 3 C-5.65001479 4.11666174 -5.20659778 4.74694925 -3.3125 7.5625 C-2.87550781 8.20316406 -2.43851563 8.84382813 -1.98828125 9.50390625 C-1.49908203 10.24447266 -1.49908203 10.24447266 -1 11 C-1.01160156 10.28972656 -1.02320313 9.57945313 -1.03515625 8.84765625 C-1.04869141 7.46900391 -1.04869141 7.46900391 -1.0625 6.0625 C-1.07410156 5.14597656 -1.08570313 4.22945312 -1.09765625 3.28515625 C-1 1 -1 1 0 0 Z M10 14 C10.66 16.31 11.32 18.62 12 21 C13.7074998 19.71937515 15.37373596 18.38232443 17 17 C17 16.34 17 15.68 17 15 C14.69 14.67 12.38 14.34 10 14 Z M19 15 C20 17 20 17 20 17 Z " fill="#912C9A" transform="translate(19,14)"/>
<path d="M0 0 C1.6875 1.375 1.6875 1.375 3 3 C3.99 3.66 4.98 4.32 6 5 C5.67 5.99 5.34 6.98 5 8 C3.35 8 1.7 8 0 8 C0.33 8.928125 0.66 9.85625 1 10.8125 C1.4392862 13.79723909 1.04947602 14.915698 -0.50390625 17.5625 C-1.90729898 19.43724095 -3.33562496 21.29351269 -4.78515625 23.1328125 C-7.92189688 27.19342559 -10.45390281 31.55397423 -13 36 C-13.99 35.67 -14.98 35.34 -16 35 C-15.5875 33.80375 -15.175 32.6075 -14.75 31.375 C-12.95291937 26.01782599 -11.45738398 20.58538972 -9.96484375 15.13671875 C-9.17045982 12.55416694 -8.30635717 10.3514429 -7 8 C-8.093125 8.020625 -9.18625 8.04125 -10.3125 8.0625 C-14 8 -14 8 -17 7 C-17.33 7.66 -17.66 8.32 -18 9 C-18 8.01 -18 7.02 -18 6 C-19.32 6.33 -20.64 6.66 -22 7 C-18.96430182 3.48498105 -16.63038154 2.28176676 -12.125 1.25 C-11.11695313 1.00765625 -10.10890625 0.7653125 -9.0703125 0.515625 C-5.96174033 -0.00642529 -3.14525936 -0.18952782 0 0 Z " fill="#882A91" transform="translate(46,21)"/>
<path d="M0 0 C1.5 1.375 1.5 1.375 3 3 C3 3.66 3 4.32 3 5 C4.65 4.67 6.3 4.34 8 4 C8.33 3.01 8.66 2.02 9 1 C17.91 1.66 26.82 2.32 36 3 C36 4.32 36 5.64 36 7 C35.40574219 7.04487549 34.81148437 7.08975098 34.19921875 7.13598633 C31.46504887 7.34939403 28.73268018 7.58082418 26 7.8125 C25.06542969 7.88275391 24.13085938 7.95300781 23.16796875 8.02539062 C17.26495154 8.54138863 12.44757578 9.65522977 7 12 C7 12.33 7 12.66 7 13 C7.66 13 8.32 13 9 13 C9 13.99 9 14.98 9 16 C9.66 16 10.32 16 11 16 C11 17.98 11 19.96 11 22 C8.35107221 21.61993645 7.19467845 21.19914355 5.296875 19.2578125 C4.78640625 18.55398437 4.2759375 17.85015625 3.75 17.125 C3.22921875 16.42632813 2.7084375 15.72765625 2.171875 15.0078125 C1 13 1 13 1 10 C0.34 10 -0.32 10 -1 10 C-1.02689216 8.52093108 -1.04634621 7.04172517 -1.0625 5.5625 C-1.07410156 4.73878906 -1.08570312 3.91507813 -1.09765625 3.06640625 C-1 1 -1 1 0 0 Z " fill="#952D9E" transform="translate(19,14)"/>
<path d="M0 0 C-1.44253657 3.36591866 -3.33264727 5.51047079 -6 8 C-5.67 8.66 -5.34 9.32 -5 10 C-7.97 9.505 -7.97 9.505 -11 9 C-10.67 8.34 -10.34 7.68 -10 7 C-9.34 7 -8.68 7 -8 7 C-7.67 6.34 -7.34 5.68 -7 5 C-2.35714286 0 -2.35714286 0 0 0 Z " fill="#6D2174" transform="translate(38,29)"/>
</svg>
