<?xml version="1.0" encoding="UTF-8"?>
<svg version="1.1" xmlns="http://www.w3.org/2000/svg" width="64" height="64">
<path d="M0 0 C-0.33 0.66 -0.66 1.32 -1 2 C-2.2684375 1.93039062 -2.2684375 1.93039062 -3.5625 1.859375 C-10.6101119 1.6351328 -16.23801952 1.61804941 -22 6 C-26.21682247 10.32779148 -28.07852051 14.37291746 -28.3125 20.375 C-28.198197 24.93187967 -27.30063467 28.05605484 -25 32 C-23.13803054 32.92393164 -23.13803054 32.92393164 -21 33 C-19.9171875 33.5259375 -19.9171875 33.5259375 -18.8125 34.0625 C-13.85144082 35.71618639 -9.03729551 35.75291356 -4.125 33.9375 C-0.76836687 30.87704038 0.8799699 27.53023455 1.09765625 22.94140625 C0.84121779 19.63272468 0.02880822 17.05521576 -1.5 14.125 C-5.02945832 11.12496043 -8.38387174 10.14790293 -13 10 C-15.65403082 10.67751651 -17.55291092 11.6785719 -20 13 C-20.99 13.33 -21.98 13.66 -23 14 C-23 12.68 -23 11.36 -23 10 C-19.3305829 6.3305829 -16.18191822 4.03638364 -11 3 C-6.06012148 3.00974335 -1.9099565 3.80094468 2 7 C2.5625 8.8125 2.5625 8.8125 3 11 C4.31431695 13.01254782 5.64721885 15.01310269 7 17 C8.77276597 22.31829792 8.72212067 27.03830184 6.4375 32.125 C3.61558756 37.20844511 -0.4227003 40.54613863 -5.4375 43.375 C-12.83549574 45.1793892 -17.66454826 43.84903276 -24 40 C-24.99 39.34 -25.98 38.68 -27 38 C-28.32 38 -29.64 38 -31 38 C-32.44921875 36.390625 -32.44921875 36.390625 -33.6875 34.25 C-34.10386719 33.55390625 -34.52023438 32.8578125 -34.94921875 32.140625 C-37.63470605 26.66981815 -37.97422221 20.51541629 -36.3515625 14.66015625 C-33.41995605 7.33114013 -28.74467141 2.12849121 -21.6875 -1.4375 C-14.03276568 -4.46288051 -7.18528681 -3.74884529 0 0 Z " fill="#841349" transform="translate(46,11)"/>
<path d="M0 0 C3.59385281 2.52334346 4.76154966 4.27140175 6.125 8.4375 C5.95278418 13.34565097 4.46551473 14.61507864 1 18 C-1.90295805 19.45147903 -3.77261779 19.37239025 -7 19 C-10.99062431 16.51527166 -12.68655935 15.03251036 -14.0625 10.5 C-13.99287744 6.60113646 -13.41262199 5.01577749 -11 2 C-7.31150969 -0.45899354 -4.28112038 -0.80114533 0 0 Z M-1 6 C-1.2475 6.763125 -1.495 7.52625 -1.75 8.3125 C-3.10995558 11.2364045 -4.31585826 12.30004356 -7 14 C-4.08347826 14.16681109 -4.08347826 14.16681109 -1 14 C1.28728734 12.16116119 1.28728734 12.16116119 1.125 9.375 C1.08375 8.59125 1.0425 7.8075 1 7 C0.34 6.67 -0.32 6.34 -1 6 Z " fill="#821249" transform="translate(38,24)"/>
<path d="M0 0 C2.97 0.495 2.97 0.495 6 1 C6 1.99 6 2.98 6 4 C1.71 3.67 -2.58 3.34 -7 3 C-7 2.67 -7 2.34 -7 2 C-3.535 1.505 -3.535 1.505 0 1 C0 0.67 0 0.34 0 0 Z " fill="#5F0F34" transform="translate(39,9)"/>
<path d="M0 0 C0.66 0.33 1.32 0.66 2 1 C0.68 2.32 -0.64 3.64 -2 5 C-1.67 5.66 -1.34 6.32 -1 7 C-1.99 7.33 -2.98 7.66 -4 8 C-4 4 -4 4 -2 1.75 C-1.01 0.88375 -1.01 0.88375 0 0 Z " fill="#6B113B" transform="translate(27,17)"/>
</svg>
