<?xml version="1.0" encoding="UTF-8"?>
<svg version="1.1" xmlns="http://www.w3.org/2000/svg" width="64" height="64">
<path d="M0 0 C-0.67400718 3.91114026 -2.54256033 6.87119182 -4.5625 10.25 C-5.52349609 11.86648437 -5.52349609 11.86648437 -6.50390625 13.515625 C-6.99761719 14.33546875 -7.49132812 15.1553125 -8 16 C-4.7 16 -1.4 16 2 16 C2 16.99 2 17.98 2 19 C1.34 19 0.68 19 0 19 C-0.24105469 19.54140625 -0.48210938 20.0828125 -0.73046875 20.640625 C-3.72330682 26.20269944 -8.08909824 31.05093606 -12 36 C-12.56380371 36.71559082 -13.12760742 37.43118164 -13.70849609 38.16845703 C-15.46428564 40.38968321 -17.23026747 42.60237206 -19 44.8125 C-19.84558472 45.88032715 -19.84558472 45.88032715 -20.70825195 46.96972656 C-21.23765381 47.62553711 -21.76705566 48.28134766 -22.3125 48.95703125 C-22.78300781 49.54460205 -23.25351562 50.13217285 -23.73828125 50.73754883 C-24.36283203 51.36246216 -24.36283203 51.36246216 -25 52 C-25.66 52 -26.32 52 -27 52 C-25 43 -23 34 -21 25 C-23.31 25 -25.62 25 -28 25 C-27.50387003 16.89654389 -24.679915 9.59474067 -22 2 C-14.58851545 0.71702277 -7.52719602 -0.25515919 0 0 Z " fill="#0F9EFF" transform="translate(43,6)"/>
<path d="M0 0 C1.93166016 0.01740234 1.93166016 0.01740234 3.90234375 0.03515625 C5.19269531 0.04417969 6.48304687 0.05320312 7.8125 0.0625 C8.81152344 0.07410156 9.81054688 0.08570312 10.83984375 0.09765625 C10.83984375 1.41765625 10.83984375 2.73765625 10.83984375 4.09765625 C8.87109375 5.80078125 8.87109375 5.80078125 6.33984375 7.34765625 C5.086875 8.12882812 5.086875 8.12882812 3.80859375 8.92578125 C3.15890625 9.3125 2.50921875 9.69921875 1.83984375 10.09765625 C3.07734375 10.77828125 3.07734375 10.77828125 4.33984375 11.47265625 C5.16484375 12.00890625 5.98984375 12.54515625 6.83984375 13.09765625 C6.83984375 13.75765625 6.83984375 14.41765625 6.83984375 15.09765625 C3.25905089 16.74905785 -0.32520627 18.39280104 -3.91015625 20.03515625 C-5.43382812 20.73801758 -5.43382812 20.73801758 -6.98828125 21.45507812 C-7.96796875 21.90302734 -8.94765625 22.35097656 -9.95703125 22.8125 C-10.85776367 23.2262085 -11.75849609 23.63991699 -12.68652344 24.06616211 C-14.84809946 24.96752992 -16.87527182 25.61036967 -19.16015625 26.09765625 C-17.66939191 22.81496305 -15.77395304 20.16688184 -13.53515625 17.34765625 C-12.90351562 16.5484375 -12.271875 15.74921875 -11.62109375 14.92578125 C-11.13898437 14.3225 -10.656875 13.71921875 -10.16015625 13.09765625 C-10.82015625 12.43765625 -11.48015625 11.77765625 -12.16015625 11.09765625 C-12.16015625 8.09765625 -12.16015625 8.09765625 -10.4453125 6.30859375 C-9.34509766 5.39980469 -9.34509766 5.39980469 -8.22265625 4.47265625 C-7.49175781 3.86164062 -6.76085937 3.250625 -6.0078125 2.62109375 C-5.39808594 2.11835937 -4.78835937 1.615625 -4.16015625 1.09765625 C-3.16015625 0.09765625 -3.16015625 0.09765625 0 0 Z " fill="#1DC8FF" transform="translate(48.16015625,30.90234375)"/>
<path d="M0 0 C0.66 0 1.32 0 2 0 C2.33 3.3 2.66 6.6 3 10 C3.99 9.67 4.98 9.34 6 9 C6.24794402 15.5705166 5.32388229 21.56971459 4 28 C3.34 28 2.68 28 2 28 C1.01 25.03 0.02 22.06 -1 19 C-1.99 19.33 -2.98 19.66 -4 20 C-6.41241685 12.31042129 -6.41241685 12.31042129 -6 8 C-4.7578125 5.76171875 -4.7578125 5.76171875 -3.125 3.6875 C-2.59132813 2.99011719 -2.05765625 2.29273438 -1.5078125 1.57421875 C-0.76144531 0.79498047 -0.76144531 0.79498047 0 0 Z " fill="#1BC2FF" transform="translate(9,26)"/>
</svg>
