<?xml version="1.0" encoding="UTF-8"?>
<svg version="1.1" xmlns="http://www.w3.org/2000/svg" width="64" height="64">
<path d="M0 0 C0.99 0.33 1.98 0.66 3 1 C4.36128091 4.11681258 5.49082304 7.23320032 6.57421875 10.453125 C7.71367724 13.5851125 8.61870572 15.69190358 11.23828125 17.80859375 C14.55859975 19.24098009 17.89444159 20.50555457 21.3125 21.6875 C21.95767578 21.91244141 22.60285156 22.13738281 23.26757812 22.36914062 C24.84332887 22.91773533 26.42143054 23.45956959 28 24 C28 24.66 28 25.32 28 26 C26.80761719 26.39832031 25.61523438 26.79664062 24.38671875 27.20703125 C22.82015512 27.74172662 21.25375742 28.27690833 19.6875 28.8125 C18.50897461 29.20405273 18.50897461 29.20405273 17.30664062 29.60351562 C16.1706543 29.99506836 16.1706543 29.99506836 15.01171875 30.39453125 C13.96697388 30.74801636 13.96697388 30.74801636 12.90112305 31.10864258 C10.68943934 32.14560896 9.50489884 33.07223702 8 35 C7.18703485 37.28395586 7.18703485 37.28395586 6.71875 39.8515625 C6.51636719 40.78484375 6.31398438 41.718125 6.10546875 42.6796875 C5.70028189 44.65072551 5.29664749 46.62208326 4.89453125 48.59375 C4.69214844 49.52445313 4.48976563 50.45515625 4.28125 51.4140625 C4.01924805 52.69724365 4.01924805 52.69724365 3.75195312 54.00634766 C3.50380859 54.66425293 3.25566406 55.3221582 3 56 C1.515 56.495 1.515 56.495 0 57 C-0.12528076 56.39003174 -0.25056152 55.78006348 -0.37963867 55.15161133 C-0.96292353 52.36745115 -1.57487454 49.59034498 -2.1875 46.8125 C-2.48237305 45.37293945 -2.48237305 45.37293945 -2.78320312 43.90429688 C-4.05065779 38.26899842 -5.08684173 34.49380144 -10 31 C-12.5460164 29.81827706 -15.12093672 28.97307588 -17.8125 28.1875 C-18.50537109 27.97158203 -19.19824219 27.75566406 -19.91210938 27.53320312 C-21.60380878 27.00819297 -23.30136365 26.50211263 -25 26 C-24.505 24.515 -24.505 24.515 -24 23 C-20.90209143 21.84155409 -17.82348259 20.9319639 -14.63476562 20.0703125 C-9.89517508 18.66187113 -7.5830313 17.21755919 -5 13 C-4.00347372 10.76306075 -3.08688416 8.48893145 -2.25 6.1875 C-1.82203125 5.02605469 -1.3940625 3.86460937 -0.953125 2.66796875 C-0.63859375 1.78753906 -0.3240625 0.90710938 0 0 Z " fill="#8560EC" transform="translate(28,4)"/>
<path d="M0 0 C0.99 0.33 1.98 0.66 3 1 C4.36128091 4.11681258 5.49082304 7.23320032 6.57421875 10.453125 C7.71367724 13.5851125 8.61870572 15.69190358 11.23828125 17.80859375 C14.55859975 19.24098009 17.89444159 20.50555457 21.3125 21.6875 C21.95767578 21.91244141 22.60285156 22.13738281 23.26757812 22.36914062 C24.84332887 22.91773533 26.42143054 23.45956959 28 24 C28 24.66 28 25.32 28 26 C24.35702832 27.54692364 20.96138123 28.68795528 17 29 C14.62446086 27.69046682 13.17200904 26.10840487 11.32421875 24.12890625 C8.33481783 21.39071549 5.13555541 19.80193501 1.5 18.0625 C0.86344482 17.75650879 0.22688965 17.45051758 -0.42895508 17.13525391 C-1.94803662 16.4137368 -3.47337683 15.70541998 -5 15 C-1.92482916 4.44191344 -1.92482916 4.44191344 0 0 Z " fill="#D93071" transform="translate(28,4)"/>
<path d="M0 0 C0.66 0 1.32 0 2 0 C2.350625 1.093125 2.70125 2.18625 3.0625 3.3125 C4.37683541 6.46435287 5.53564713 7.62316459 8.6875 8.9375 C9.780625 9.288125 10.87375 9.63875 12 10 C12 10.66 12 11.32 12 12 C10.906875 12.350625 9.81375 12.70125 8.6875 13.0625 C5.53564713 14.37683541 4.37683541 15.53564713 3.0625 18.6875 C2.711875 19.780625 2.36125 20.87375 2 22 C1.34 22 0.68 22 0 22 C-0.350625 20.906875 -0.70125 19.81375 -1.0625 18.6875 C-2.37683541 15.53564713 -3.53564713 14.37683541 -6.6875 13.0625 C-8.3271875 12.5365625 -8.3271875 12.5365625 -10 12 C-10 11.34 -10 10.68 -10 10 C-8.906875 9.649375 -7.81375 9.29875 -6.6875 8.9375 C-3.53564713 7.62316459 -2.37683541 6.46435287 -1.0625 3.3125 C-0.711875 2.219375 -0.36125 1.12625 0 0 Z " fill="#8163F1" transform="translate(49,35)"/>
<path d="M0 0 C2.9375 0.375 2.9375 0.375 6 1 C6.33 1.66 6.66 2.32 7 3 C8.134375 3.309375 9.26875 3.61875 10.4375 3.9375 C14 5 14 5 16 8 C16.07324365 11.0396116 15.49749146 14.00566463 15 17 C14.86335938 17.84304687 14.72671875 18.68609375 14.5859375 19.5546875 C13.70590294 24.2233454 13.70590294 24.2233454 13 26 C12.01 26.33 11.02 26.66 10 27 C9.87471924 26.39526855 9.74943848 25.79053711 9.62036133 25.16748047 C9.03599715 22.39910486 8.42453612 19.63738391 7.8125 16.875 C7.61591797 15.92367187 7.41933594 14.97234375 7.21679688 13.9921875 C5.8685233 8.01829844 4.35416442 4.34684649 0 0 Z " fill="#3272FF" transform="translate(18,34)"/>
<path d="M0 0 C8.99605687 1.38026143 16.4860392 6.92030325 23 13 C22.67 13.66 22.34 14.32 22 15 C19.67843403 15.40729228 17.3431213 15.74438677 15 16 C14.67 15.01 14.34 14.02 14 13 C13.195625 12.87625 12.39125 12.7525 11.5625 12.625 C10.716875 12.41875 9.87125 12.2125 9 12 C8.67 11.34 8.34 10.68 8 10 C7.030625 9.87625 6.06125 9.7525 5.0625 9.625 C4.051875 9.41875 3.04125 9.2125 2 9 C0.75 7 0.75 7 0 5 C-0.66 4.67 -1.32 4.34 -2 4 C-1.34 2.68 -0.68 1.36 0 0 Z " fill="#B249B6" transform="translate(22,19)"/>
<path d="M0 0 C0.99 0.33 1.98 0.66 3 1 C4.17751006 3.4809727 5.18149512 5.87012365 6.125 8.4375 C6.64801092 9.81136039 7.17143041 11.18506532 7.6953125 12.55859375 C8.12585937 13.69425781 8.55640625 14.82992188 9 16 C9.33 16.66 9.66 17.32 10 18 C4.73829306 16.58832253 1.27828642 14.25149768 -3 11 C-2.69078116 9.54096742 -2.37751201 8.08279278 -2.0625 6.625 C-1.88847656 5.81289062 -1.71445312 5.00078125 -1.53515625 4.1640625 C-1 2 -1 2 0 0 Z " fill="#FE1729" transform="translate(28,4)"/>
<path d="M0 0 C0.66 0 1.32 0 2 0 C2.350625 1.093125 2.70125 2.18625 3.0625 3.3125 C4.37683541 6.46435287 5.53564713 7.62316459 8.6875 8.9375 C9.780625 9.288125 10.87375 9.63875 12 10 C12 10.66 12 11.32 12 12 C6.01006953 12.3152595 2.36439644 11.68219822 -3 9 C-2.01 6.03 -1.02 3.06 0 0 Z " fill="#A152CD" transform="translate(49,35)"/>
<path d="M0 0 C2.9375 0.375 2.9375 0.375 6 1 C6.33 1.66 6.66 2.32 7 3 C8.134375 3.309375 9.26875 3.61875 10.4375 3.9375 C14 5 14 5 16 8 C16 8.99 16 9.98 16 11 C12.7 10.67 9.4 10.34 6 10 C5.566875 8.906875 5.13375 7.81375 4.6875 6.6875 C3.50504359 3.90591207 2.39199957 1.93638061 0 0 Z " fill="#606DFE" transform="translate(18,34)"/>
<path d="M0 0 C2 3 2 3 3 5 C3.99 5.33 4.98 5.66 6 6 C6.33 6.99 6.66 7.98 7 9 C-3.55808656 7.07289294 -3.55808656 7.07289294 -8 5 C-7.67 4.01 -7.34 3.02 -7 2 C-3.4375 0.8125 -3.4375 0.8125 0 0 Z " fill="#616CFE" transform="translate(11,25)"/>
<path d="M0 0 C7.88968782 1.55571309 15.16698751 6.63993447 21 12 C20.01 12.33 19.02 12.66 18 13 C18 12.34 18 11.68 18 11 C16.824375 11.0928125 16.824375 11.0928125 15.625 11.1875 C14.325625 11.0946875 14.325625 11.0946875 13 11 C12.34 10.01 11.68 9.02 11 8 C10.2575 7.71125 9.515 7.4225 8.75 7.125 C5.13766437 5.64722633 2.88867759 3.61996339 0 1 C0 0.67 0 0.34 0 0 Z " fill="#C53D95" transform="translate(23,19)"/>
<path d="M0 0 C5.92863717 1.16651426 11.38798394 2.75519358 17 5 C17 5.66 17 6.32 17 7 C14.69 7.33 12.38 7.66 10 8 C9.34 7.01 8.68 6.02 8 5 C5.67518826 3.98034573 3.34205301 2.97940398 1 2 C0.67 1.34 0.34 0.68 0 0 Z " fill="#F02045" transform="translate(39,23)"/>
<path d="M0 0 C2.25 1.75 2.25 1.75 3.25 3.75 C5.77733235 4.40555119 5.77733235 4.40555119 8.25 4.75 C8.25 5.08 8.25 5.41 8.25 5.75 C2.04029227 6.08266291 -2.03264895 5.20029331 -7.75 2.75 C-7.75 2.09 -7.75 1.43 -7.75 0.75 C-4.51796354 -1.00453408 -3.44213319 -1.56460599 0 0 Z " fill="#9A56D7" transform="translate(21.75,23.25)"/>
<path d="M0 0 C4.09792005 0.65566721 7.66609682 2.58984833 11 5 C12.4375 7.25 12.4375 7.25 13 9 C7.99971686 7.65846062 3.80932497 5.51629997 0 2 C0 1.34 0 0.68 0 0 Z " fill="#F11F42" transform="translate(25,13)"/>
<path d="M0 0 C4.30764815 1.56641751 8.06171464 3.68336156 12 6 C8.57056481 7.18771723 6.62215325 6.80226223 3.25 5.5625 C2.45078125 5.27503906 1.6515625 4.98757812 0.828125 4.69140625 C0.22484375 4.46324219 -0.3784375 4.23507813 -1 4 C-0.67 2.68 -0.34 1.36 0 0 Z " fill="#DD2D6A" transform="translate(24,15)"/>
<path d="M0 0 C1.6286551 0.42369072 3.25287378 0.8644623 4.875 1.3125 C5.77992187 1.55613281 6.68484375 1.79976562 7.6171875 2.05078125 C10 3 10 3 12 6 C9.9375 6.875 9.9375 6.875 7 7 C4.38270898 5.29119016 2.13674187 3.27837029 0 1 C0 0.67 0 0.34 0 0 Z " fill="#D13581" transform="translate(38,26)"/>
<path d="M0 0 C3.26460973 1.80412643 4.88929795 2.83394693 7 6 C1.375 6.25 1.375 6.25 -2 4 C-1.34 2.68 -0.68 1.36 0 0 Z " fill="#B845AC" transform="translate(22,19)"/>
<path d="M0 0 C2.475 0.495 2.475 0.495 5 1 C6.125 5.75 6.125 5.75 5 8 C4.34 8 3.68 8 3 8 C2.01 5.36 1.02 2.72 0 0 Z " fill="#5F6DFE" transform="translate(46,49)"/>
<path d="M0 0 C3.3 0 6.6 0 10 0 C10 0.99 10 1.98 10 3 C6.7 2.67 3.4 2.34 0 2 C0 1.34 0 0.68 0 0 Z " fill="#506FFF" transform="translate(24,42)"/>
<path d="M0 0 C1.98 0 3.96 0 6 0 C6.33 1.32 6.66 2.64 7 4 C4.69 3.34 2.38 2.68 0 2 C0 1.34 0 0.68 0 0 Z " fill="#6D6AFD" transform="translate(39,45)"/>
</svg>
