<?xml version="1.0" encoding="UTF-8"?>
<svg version="1.1" xmlns="http://www.w3.org/2000/svg" width="64" height="64">
<path d="M0 0 C1.17046875 0.01804687 2.3409375 0.03609375 3.546875 0.0546875 C4.88492188 0.08949219 4.88492188 0.08949219 6.25 0.125 C6.745 1.61 6.745 1.61 7.25 3.125 C6.280625 3.66125 5.31125 4.1975 4.3125 4.75 C1.03777459 6.83521537 1.03777459 6.83521537 0.25 10.125 C0.25 13.22148496 0.35585239 14.68966735 2.25 17.125 C4.30000871 17.93028889 4.30000871 17.93028889 6.25 18.125 C7.49546405 15.63407189 7.0267578 14.71419267 6.25 12.125 C11.79866272 13.47013036 15.04977788 17.65113784 18.25 22.125 C20.96911555 27.61707497 20.91007232 33.1191568 20.25 39.125 C16.68280061 46.52363578 11.01205395 49.44660934 3.65234375 52.29296875 C1.52952735 53.02818809 -0.56159885 53.62464962 -2.75 54.125 C-1.84145974 47.90082121 -0.7931328 44.28558456 4.25 40.125 C4.91 39.465 5.57 38.805 6.25 38.125 C5.3425 37.795 4.435 37.465 3.5 37.125 C-0.73067867 34.52150543 -1.93546088 31.61865277 -3.75 27.125 C-4.04132812 27.65609375 -4.33265625 28.1871875 -4.6328125 28.734375 C-7.45125032 33.59130559 -9.83937654 36.3841869 -14.75 39.125 C-13.90115234 39.74375 -13.90115234 39.74375 -13.03515625 40.375 C-7.11561686 45.03572697 -7.11561686 45.03572697 -5.99609375 48.37109375 C-5.75 50.5625 -5.75 50.5625 -5.75 54.125 C-6.389375 53.856875 -7.02875 53.58875 -7.6875 53.3125 C-10.20046029 52.33808683 -12.67659275 51.53619954 -15.25 50.75 C-20.76756262 48.89251209 -24.14639255 46.54068803 -27.0625 41.4375 C-29.5435431 35.9364987 -29.84562406 31.17388827 -27.796875 25.47265625 C-25.54247022 20.61427126 -23.39656108 17.04569553 -18.75 14.125 C-19.08 16.765 -19.41 19.405 -19.75 22.125 C-17.44 22.125 -15.13 22.125 -12.75 22.125 C-12.894375 21.46113281 -13.03875 20.79726563 -13.1875 20.11328125 C-13.373125 19.23027344 -13.55875 18.34726562 -13.75 17.4375 C-13.935625 16.56738281 -14.12125 15.69726562 -14.3125 14.80078125 C-15.00334714 10.57551082 -15.38366532 8.09812888 -13 4.4375 C-8.8821437 0.2052588 -5.85121882 -0.11702438 0 0 Z " fill="#F74A0E" transform="translate(36.75,4.875)"/>
</svg>
