<?xml version="1.0" encoding="UTF-8"?>
<svg version="1.1" xmlns="http://www.w3.org/2000/svg" width="64" height="64">
<path d="M0 0 C0.99 0 1.98 0 3 0 C3.18175781 0.62648438 3.36351562 1.25296875 3.55078125 1.8984375 C3.80214844 2.71570313 4.05351563 3.53296875 4.3125 4.375 C4.55613281 5.18710938 4.79976562 5.99921875 5.05078125 6.8359375 C5.91368185 9.33184629 5.91368185 9.33184629 9 11 C11.97449608 11.24219315 11.97449608 11.24219315 15.1875 11.125 C16.27417969 11.10695313 17.36085937 11.08890625 18.48046875 11.0703125 C19.31191406 11.04710937 20.14335938 11.02390625 21 11 C20.37964589 14.3299468 19.87158808 15.14093992 17.4375 17.8125 C15.34755823 20.24465445 14.97870278 21.10648612 14.3125 24.4375 C15.13378725 28.69326121 16.67178087 30.43407919 19.6875 33.421875 C21 35 21 35 21 38 C20.43152344 37.96519531 19.86304688 37.93039063 19.27734375 37.89453125 C13.67553056 37.69814047 9.8850485 38.16667187 5 41 C1.81965697 44.83834503 1.05206938 49.22522359 0 54 C-0.99 54 -1.98 54 -3 54 C-4.359375 52.28515625 -4.359375 52.28515625 -5.75 50.0625 C-7.97746591 46.97367412 -8.6828158 46.11747563 -12.375 44.75 C-16.40740295 45.02809676 -18.77067707 46.06469947 -22.203125 48.08984375 C-24 49 -24 49 -27 49 C-26.7834375 48.33613281 -26.566875 47.67226563 -26.34375 46.98828125 C-26.0653125 46.10527344 -25.786875 45.22226562 -25.5 44.3125 C-25.2215625 43.44238281 -24.943125 42.57226562 -24.65625 41.67578125 C-23.98934945 38.95657366 -23.72153263 36.78467369 -24 34 C-26.99817654 31.00182346 -30.01092106 29.36768421 -34 28 C-33 25 -33 25 -31.2578125 23.9375 C-30.20207031 23.4734375 -30.20207031 23.4734375 -29.125 23 C-26.19533153 21.70272983 -23.88530146 20.64881918 -22 18 C-21.63680691 15.02807238 -21.63680691 15.02807238 -21.8125 11.8125 C-21.83957031 10.72582031 -21.86664063 9.63914062 -21.89453125 8.51953125 C-21.92933594 7.68808594 -21.96414062 6.85664063 -22 6 C-20.96875 6.33 -19.9375 6.66 -18.875 7 C-13.87448792 8.38847217 -10.51841322 8.83363863 -5.8125 6.25 C-2.99414348 4.18740851 -2.99414348 4.18740851 -1.3125 1.75 C-0.879375 1.1725 -0.44625 0.595 0 0 Z M-3 14 C-3.99 14.66 -4.98 15.32 -6 16 C-8.32387947 16.39387788 -10.65793749 16.73486085 -13 17 C-13.2475 17.928125 -13.495 18.85625 -13.75 19.8125 C-15.06454245 23.16458325 -15.97963384 24.1877803 -19 26 C-18.34 26.556875 -17.68 27.11375 -17 27.6875 C-15 30 -15 30 -14.75 32.75 C-14.8325 33.4925 -14.915 34.235 -15 35 C-13.741875 34.938125 -12.48375 34.87625 -11.1875 34.8125 C-7.27768014 34.79173989 -7.27768014 34.79173989 -5 36.5 C-4.67 36.995 -4.34 37.49 -4 38 C-3.484375 37.030625 -2.96875 36.06125 -2.4375 35.0625 C0 32 0 32 3.75 31.125 C4.8225 31.08375 5.895 31.0425 7 31 C6.34 30.67 5.68 30.34 5 30 C4.18690098 26.08234111 3.62446732 22.82092412 5 19 C4.05125 18.731875 3.1025 18.46375 2.125 18.1875 C-1 17 -1 17 -3 14 Z " fill="#F5B800" transform="translate(38,5)"/>
</svg>
