<?xml version="1.0" encoding="UTF-8"?>
<svg version="1.1" xmlns="http://www.w3.org/2000/svg" width="64" height="64">
<path d="M0 0 C1.32 0 2.64 0 4 0 C5.98 4.29 7.96 8.58 10 13 C15.61 13 21.22 13 27 13 C26.03302499 17.83487504 25.40457204 19.19806678 22.4375 22.8125 C21.47650391 23.99779297 21.47650391 23.99779297 20.49609375 25.20703125 C20.00238281 25.79871094 19.50867187 26.39039062 19 27 C20.92596576 30.50800907 22.67717877 33.61440797 25.25 36.6875 C27 39 27 39 27 43 C21.72 42.67 16.44 42.34 11 42 C8.69 46.62 6.38 51.24 4 56 C2.68 56 1.36 56 0 56 C-2.31 51.38 -4.62 46.76 -7 42 C-14.92 42.495 -14.92 42.495 -23 43 C-21.86415772 37.3207886 -20.05551845 35.42239705 -16.30078125 31.28125 C-14.6850418 29.05043361 -14.6850418 29.05043361 -15.59765625 26.4765625 C-17.37662156 23.33488003 -19.48566929 20.66116265 -21.7578125 17.8671875 C-23 16 -23 16 -23 13 C-17.39 13 -11.78 13 -6 13 C-4.02 8.71 -2.04 4.42 0 0 Z M-3 23 C-2.814375 24.093125 -2.62875 25.18625 -2.4375 26.3125 C-2 30 -2 30 -3 33 C-1.906875 32.814375 -0.81375 32.62875 0.3125 32.4375 C4 32 4 32 7 33 C6.7215625 31.63875 6.7215625 31.63875 6.4375 30.25 C6.04265379 27.31685676 6.05308428 25.7355343 7 23 C6.0925 23.185625 5.185 23.37125 4.25 23.5625 C1.31685676 23.95734621 -0.2644657 23.94691572 -3 23 Z " fill="#44E4E6" transform="translate(30,4)"/>
</svg>
