<?xml version="1.0" encoding="UTF-8"?>
<svg version="1.1" xmlns="http://www.w3.org/2000/svg" width="64" height="64">
<path d="M0 0 C1.98 1.65 3.96 3.3 6 5 C5.34 6.98 4.68 8.96 4 11 C5.32 11 6.64 11 8 11 C8.66 11.33 9.32 11.66 10 12 C10.99 10.02 11.98 8.04 13 6 C13.99 6 14.98 6 16 6 C17.4606285 8.64738916 18 9.89448334 18 13 C18.598125 12.484375 19.19625 11.96875 19.8125 11.4375 C20.534375 10.963125 21.25625 10.48875 22 10 C22.99 10.33 23.98 10.66 25 11 C24.34 8.69 23.68 6.38 23 4 C24.32 2.68 25.64 1.36 27 0 C30 1 30 1 31.16796875 2.8203125 C33.32843793 7.70413171 34.80471255 11.56819031 34 17 C31.07343989 23.08221962 27.08112131 27.2844635 22.25 31.9375 C21.55261719 32.62134766 20.85523437 33.30519531 20.13671875 34.00976562 C18.43116142 35.68027726 16.71898116 37.34332392 15 39 C10.5823858 35.28140111 6.30553833 31.4864244 2.1875 27.4375 C1.25292969 26.52871094 0.31835938 25.61992188 -0.64453125 24.68359375 C-3.77487416 21.11718317 -4.83608065 18.42063438 -5.375 13.75 C-4.91242782 9.12427825 -3.41940088 3.41940088 0 0 Z M9 14 C7.57337781 16.85324437 7.68966132 18.83454549 8 22 C9.87769142 24.84920053 9.87769142 24.84920053 12 27 C11.67 27.66 11.34 28.32 11 29 C11.99 30.485 11.99 30.485 13 32 C14.32 31.67 15.64 31.34 17 31 C16.9175 30.278125 16.835 29.55625 16.75 28.8125 C17 26 17 26 19.0625 23.625 C21.41373442 21.0302629 21.41373442 21.0302629 20.75 17.1875 C20.5025 16.135625 20.255 15.08375 20 14 C19.071875 14.928125 19.071875 14.928125 18.125 15.875 C16.75 17.25 15.375 18.625 14 20 C13.360625 19.01 12.72125 18.02 12.0625 17 C11.381875 16.01 10.70125 15.02 10 14 C9.67 14 9.34 14 9 14 Z " fill="#25A685" transform="translate(18,14)"/>
<path d="M0 0 C3.08669204 3.08669204 3.44855089 3.91927658 4 8 C5.32 7.01 6.64 6.02 8 5 C8.66 5.33 9.32 5.66 10 6 C9.34 6.66 8.68 7.32 8 8 C7.30251417 9.31747324 6.63040043 10.64914193 6 12 C5.67 11.34 5.34 10.68 5 10 C3.02 12.97 3.02 12.97 1 16 C-1.61527381 13.63379989 -3.26440562 11.057952 -5 8 C-3.35 5.36 -1.7 2.72 0 0 Z " fill="#20987A" transform="translate(32,19)"/>
</svg>
