<?xml version="1.0" encoding="UTF-8"?>
<svg version="1.1" xmlns="http://www.w3.org/2000/svg" width="64" height="64">
<path d="M0 0 C1.32 0.33 2.64 0.66 4 1 C4 1.99 4 2.98 4 4 C4.64066406 4.268125 5.28132813 4.53625 5.94140625 4.8125 C12.93282023 7.97999605 18.48917762 11.97835523 22 19 C22.62963442 22.91329747 22.75443097 26.468102 20.9765625 30.078125 C17.56562134 34.56322995 14.25434469 35.94692616 8.7578125 36.80859375 C8.17773438 36.87175781 7.59765625 36.93492188 7 37 C7.2475 37.721875 7.495 38.44375 7.75 39.1875 C8 42 8 42 6.0625 44.8125 C5.381875 45.534375 4.70125 46.25625 4 47 C2.0625 46.6875 2.0625 46.6875 0 46 C-0.495 44.515 -0.495 44.515 -1 43 C-2.53685853 41.55230996 -2.53685853 41.55230996 -4.375 40.1875 C-8.38514683 36.81963541 -10.57263758 33.9387169 -11.34765625 28.609375 C-11.60865118 24.13900029 -11.52003484 20.99205461 -8.625 17.4375 C-5.50947859 14.54451583 -4.84682643 14.06272788 -0.625 13.75 C3.11659328 14.00804092 4.35674154 14.46247188 7 17 C6 20 6 20 4 21 C4 21.66 4 22.32 4 23 C5.65 22.67 7.3 22.34 9 22 C8.6852134 18.53734736 8.29733158 16.41414041 6.25 13.5625 C4.07666568 11.69615603 4.07666568 11.69615603 1.25 12.25 C0.5075 12.4975 -0.235 12.745 -1 13 C-2.5625 11.3125 -2.5625 11.3125 -4 9 C-3.80697424 5.13948478 -2.47512452 2.90558095 0 0 Z M-2 35 C-1.67 35.66 -1.34 36.32 -1 37 C0.65 37 2.3 37 4 37 C1.1575146 35.42726432 1.1575146 35.42726432 -2 35 Z " fill="#AE2441" transform="translate(29,8)"/>
</svg>
