<?xml version="1.0" encoding="UTF-8"?>
<svg version="1.1" xmlns="http://www.w3.org/2000/svg" width="64" height="64">
<path d="M0 0 C3.47000311 1.1566677 3.84701459 1.85726716 5.6875 4.875 C6.12449219 5.57367188 6.56148437 6.27234375 7.01171875 6.9921875 C8 9 8 9 8 12 C6.5 14.1875 6.5 14.1875 5 16 C5.33 16.66 5.66 17.32 6 18 C7.32 15.69 8.64 13.38 10 11 C10.5775 11.185625 11.155 11.37125 11.75 11.5625 C13.96319375 12.17069198 13.96319375 12.17069198 15.9375 11.4375 C18.77562988 10.83547245 20.43200707 11.78733667 23 13 C22.54625 13.845625 22.0925 14.69125 21.625 15.5625 C18.50147929 21.82683481 18.50147929 21.82683481 18.6875 28.5625 C19.120625 29.366875 19.55375 30.17125 20 31 C20.53625 32.093125 21.0725 33.18625 21.625 34.3125 C22.07875 35.199375 22.5325 36.08625 23 37 C19.15321978 38.8684361 17.1104335 39.05395731 13 38 C11.68 38 10.36 38 9 38 C8.01 36.02 7.02 34.04 6 32 C5.67 32.66 5.34 33.32 5 34 C6.32 35.98 7.64 37.96 9 40 C8.5875 40.53625 8.175 41.0725 7.75 41.625 C5.7373132 44.35650351 3.86693901 47.16740287 2 50 C-1.82053924 48.72648692 -2.23021375 47.37362475 -4.1875 43.9375 C-4.71730469 43.01839844 -5.24710938 42.09929688 -5.79296875 41.15234375 C-6.19128906 40.44207031 -6.58960938 39.73179688 -7 39 C-5.02 36.525 -5.02 36.525 -3 34 C-3.33 33.34 -3.66 32.68 -4 32 C-5.32 34.31 -6.64 36.62 -8 39 C-8.86625 38.7215625 -8.86625 38.7215625 -9.75 38.4375 C-11.96319375 37.82930802 -11.96319375 37.82930802 -13.9375 38.5625 C-16.77562988 39.16452755 -18.43200707 38.21266333 -21 37 C-20.319375 35.7315625 -20.319375 35.7315625 -19.625 34.4375 C-16.50147929 28.17316519 -16.50147929 28.17316519 -16.6875 21.4375 C-17.3371875 20.2309375 -17.3371875 20.2309375 -18 19 C-18.53625 17.906875 -19.0725 16.81375 -19.625 15.6875 C-20.07875 14.800625 -20.5325 13.91375 -21 13 C-17.15321978 11.1315639 -15.1104335 10.94604269 -11 12 C-9.68 12 -8.36 12 -7 12 C-6.01 13.98 -5.02 15.96 -4 18 C-3.67 17.34 -3.34 16.68 -3 16 C-4.32 14.02 -5.64 12.04 -7 10 C-4.69 6.7 -2.38 3.4 0 0 Z M-1 23 C-1 24.32 -1 25.64 -1 27 C0.32 27 1.64 27 3 27 C3 25.68 3 24.36 3 23 C1.68 23 0.36 23 -1 23 Z M-14 24 C-14 24.66 -14 25.32 -14 26 C-11.69 26 -9.38 26 -7 26 C-7 25.34 -7 24.68 -7 24 C-9.31 24 -11.62 24 -14 24 Z M9 24 C9 24.66 9 25.32 9 26 C11.31 26 13.62 26 16 26 C16 25.34 16 24.68 16 24 C13.69 24 11.38 24 9 24 Z " fill="#2C8FA9" transform="translate(31,7)"/>
<path d="M0 0 C1.32 0 2.64 0 4 0 C3.67 1.65 3.34 3.3 3 5 C1.68 5 0.36 5 -1 5 C-1 1 -1 1 0 0 Z " fill="#237084" transform="translate(21,40)"/>
</svg>
