<?xml version="1.0" encoding="UTF-8"?>
<svg version="1.1" xmlns="http://www.w3.org/2000/svg" width="64" height="64">
<path d="M0 0 C0.66 0.33 1.32 0.66 2 1 C3.33350067 5.44500224 4.29175731 9.3318831 4 14 C6.64 13.67 9.28 13.34 12 13 C12.97608217 15.92824652 13.08226668 17.95613276 13 21 C14.299375 21.433125 14.299375 21.433125 15.625 21.875 C18.75 22.91666667 21.875 23.95833333 25 25 C24.505 26.485 24.505 26.485 24 28 C21.49609375 28.94921875 21.49609375 28.94921875 18.4375 29.6875 C17.42558594 29.93886719 16.41367187 30.19023438 15.37109375 30.44921875 C14.58863281 30.63097656 13.80617187 30.81273438 13 31 C13 33.31 13 35.62 13 38 C10 39 10 39 7 38 C6.01 38.495 6.01 38.495 5 39 C4.08514427 41.80478195 4.08514427 41.80478195 3.375 45.0625 C2.98441406 46.71958984 2.98441406 46.71958984 2.5859375 48.41015625 C2.39257812 49.26480469 2.19921875 50.11945312 2 51 C1.01 51 0.02 51 -1 51 C-1.18175781 50.14535156 -1.36351563 49.29070313 -1.55078125 48.41015625 C-1.80214844 47.30542969 -2.05351562 46.20070312 -2.3125 45.0625 C-2.55613281 43.96035156 -2.79976562 42.85820313 -3.05078125 41.72265625 C-3.36402344 40.82417969 -3.67726563 39.92570312 -4 39 C-7.13349732 37.95550089 -7.98968256 38.06576355 -11 39 C-12 36 -12 36 -12 31 C-15.63 30.01 -19.26 29.02 -23 28 C-23 26.68 -23 25.36 -23 24 C-21.93458984 23.80083984 -21.93458984 23.80083984 -20.84765625 23.59765625 C-19.92855469 23.42105469 -19.00945313 23.24445312 -18.0625 23.0625 C-17.14597656 22.88847656 -16.22945312 22.71445312 -15.28515625 22.53515625 C-13.04710156 22.22285012 -13.04710156 22.22285012 -12 21 C-11.95907063 18.66702567 -11.95758277 16.33294775 -12 14 C-9 13 -9 13 -6 14 C-5.34 13.67 -4.68 13.34 -4 13 C-3.1219655 10.22770623 -3.1219655 10.22770623 -2.4375 7 C-1.09312977 1.09312977 -1.09312977 1.09312977 0 0 Z M-7 23 C-7.83333333 26 -7.83333333 26 -7 29 C-5.08333333 32.08333333 -5.08333333 32.08333333 -2 34 C1.85210127 34.06641554 3.99848005 33.87229157 6.9375 31.3125 C8.3613395 28.2135552 8.55153827 26.37817188 8 23 C5.70985284 19.9900923 4.20864386 18.30216097 0.5 17.375 C-3.20864386 18.30216097 -4.70985284 19.9900923 -7 23 Z " fill="#9D8F19" transform="translate(32,6)"/>
<path d="M0 0 C2.93453261 0.36681658 3.86437246 0.86437246 6 3 C5.67028521 6.29714793 5.3773161 7.6226839 3 10 C0.06546739 9.63318342 -0.86437246 9.13562754 -3 7 C-2.67028521 3.70285207 -2.3773161 2.3773161 0 0 Z " fill="#9D8F1A" transform="translate(31,27)"/>
<path d="M0 0 C2.375 0.6875 2.375 0.6875 5 2 C6.3125 4.625 6.3125 4.625 7 7 C6.01 7.33 5.02 7.66 4 8 C2.35 6.35 0.7 4.7 -1 3 C-0.67 2.01 -0.34 1.02 0 0 Z " fill="#908318" transform="translate(46,44)"/>
<path d="M0 0 C0.99 0.33 1.98 0.66 3 1 C2.3125 3.375 2.3125 3.375 1 6 C-1.625 7.3125 -1.625 7.3125 -4 8 C-4.33 7.01 -4.66 6.02 -5 5 C-3.35 3.35 -1.7 1.7 0 0 Z " fill="#908417" transform="translate(17,44)"/>
<path d="M0 0 C0.99 0.33 1.98 0.66 3 1 C2.3125 3.375 2.3125 3.375 1 6 C-1.625 7.3125 -1.625 7.3125 -4 8 C-4.33 7.01 -4.66 6.02 -5 5 C-3.35 3.35 -1.7 1.7 0 0 Z " fill="#908318" transform="translate(50,12)"/>
<path d="M0 0 C2.375 0.6875 2.375 0.6875 5 2 C6.3125 4.625 6.3125 4.625 7 7 C6.01 7.33 5.02 7.66 4 8 C2.35 6.35 0.7 4.7 -1 3 C-0.67 2.01 -0.34 1.02 0 0 Z " fill="#908417" transform="translate(13,12)"/>
</svg>
